<svg width="361" height="1012" viewBox="0 0 361 1012" fill="none" xmlns="http://www.w3.org/2000/svg">
<path d="M781.761 0L751.248 42.2984C720.735 83.0156 659.886 169.984 598.504 168.798C537.744 169.984 466.252 313.296 405.76 335.829C344.377 356.78 329.025 307.562 243.713 309.649C134.027 328.428 102.429 339.683 39.6883 323.641C-75.5768 294.17 -57.6503 297.092 -119.033 295.906C-179.614 297.092 -255.512 336.016 -316.005 400.452C-377.298 462.516 -437.88 296.484 -469.016 210.702L-499.263 126.5V1012H-468.749C-438.236 1012 -377.387 1012 -316.005 1012C-255.245 1012 -194.13 1012 -133.637 1012C-72.2546 1012 -10.8723 1012 49.6205 1012C110.736 1012 171.496 1012 232.878 1012C293.727 1012 354.753 1012 416.136 1012C476.718 1012 538.011 1012 598.504 1012C659.797 1012 720.379 1012 751.515 1012H781.761V0Z" fill="#232323"/>
</svg>
